M48
METRIC,LZ,000.000
;FILE_FORMAT=3:3
;TYPE=PLATED
;Layer: PTH_Through
;EasyEDA v6.5.47, 2024-11-13 08:28:34
;87231406ceee420ca99a4478fe7bfb21,034e4511e0c640c9b8a39c55fee02e59,10
;Gerber Generator version 0.2
;Holesize 1 = 0.305 mm
T01C0.305
;Holesize 2 = 0.306 mm
T02C0.306
;Holesize 3 = 0.310 mm
T03C0.310
;Holesize 4 = 0.501 mm
T04C0.501
;Holesize 5 = 0.600 mm
T05C0.600
;Holesize 6 = 0.712 mm
T06C0.712
;Holesize 7 = 1.000 mm
T07C1.000
;Holesize 8 = 1.101 mm
T08C1.101
;Holesize 9 = 1.600 mm
T09C1.600
%
G05
G90
T01
X040351Y028667
X039151Y027467
X039151Y028667
X040351Y027467
T02
X032900Y019904
X018307Y038813
X007410Y020997
X007039Y036115
X035758Y038314
X047331Y017621
X046837Y036287
X042239Y024450
X026637Y024207
X043638Y027925
X036970Y025460
X040895Y031953
X026685Y026328
X041261Y032717
X026361Y025043
X026656Y033101
X039101Y031986
X025273Y012992
X021903Y009710
X016537Y013405
X021282Y006096
X018258Y012792
X018756Y013426
X020641Y008348
X009537Y030884
X017672Y009208
X027308Y014848
X018957Y009215
X022758Y016137
X033589Y024512
X024992Y014172
X021693Y013166
T03
X053340Y037973
X050800Y037973
X048260Y037973
X045720Y037973
X043942Y037084
X042545Y035433
X041148Y033782
X044831Y033782
X046609Y035433
X048260Y036068
X050800Y036068
X053340Y036068
T04
X009398Y044704
X009398Y043307
X009398Y041910
X009398Y043307
X009398Y040513
X009398Y041910
X029591Y041910
X029591Y040513
X029591Y043307
X029591Y041910
X029591Y043307
X029591Y044704
X012700Y034417
X015240Y034417
X017780Y034417
X020320Y034417
X022860Y034417
X025400Y034417
X012700Y027559
X022860Y027559
X025400Y027559
X012700Y025400
X015240Y025400
X017780Y025400
X020320Y025400
X022860Y025400
X025400Y025400
X012700Y023114
X015240Y023114
X017780Y023114
X020320Y023114
X022860Y023114
X025400Y023114
X025400Y027559
X022860Y027559
X025400Y029845
X022860Y029845
X025400Y032004
X022860Y032004
X012700Y027559
X012700Y029845
X012700Y032004
X025400Y036576
X022860Y036576
X020320Y036576
X017780Y036576
X015240Y036576
X012700Y036576
T05
X016757Y006328G85X016757Y007228
X025407Y006328G85X025407Y007228
X016757Y002278G85X016757Y002878
X025407Y002278G85X025407Y002878
T06
X046355Y041656
X043815Y041656
X041275Y041656
X038735Y041656
T07
X001397Y038100
X001397Y034290
X001397Y030480
X001397Y026670
X001397Y015240
X001397Y019050
X001397Y022860
X001397Y007620
X001397Y011430
X001397Y015240
X050800Y011557
X050800Y007747
X050800Y019177
X050800Y015367
X050800Y011557
X050800Y022987
X050800Y026797
X050800Y030607
X050800Y034417
T08
X008636Y010795
X011176Y010795
T09
X056388Y036957
M30
