G04 Layer: TopSolderMaskLayer*
G04 EasyEDA v6.5.47, 2024-11-13 08:28:34*
G04 87231406ceee420ca99a4478fe7bfb21,034e4511e0c640c9b8a39c55fee02e59,10*
G04 Gerber Generator version 0.2*
G04 Scale: 100 percent, Rotated: No, Reflected: No *
G04 Dimensions in millimeters *
G04 leading zeros omitted , absolute positions ,4 integer and 5 decimal *
%FSLAX45Y45*%
%MOMM*%

%AMMACRO1*4,1,8,-0.4243,-0.4828,-0.454,-0.453,-0.454,0.4531,-0.4243,0.4828,0.4243,0.4828,0.454,0.4531,0.454,-0.453,0.4243,-0.4828,-0.4243,-0.4828,0*%
%AMMACRO2*4,1,8,-0.4161,-0.3208,-0.4458,-0.291,-0.4458,0.2911,-0.4161,0.3208,0.4161,0.3208,0.4458,0.2911,0.4458,-0.291,0.4161,-0.3208,-0.4161,-0.3208,0*%
%AMMACRO3*4,1,8,-2.3711,-2.4008,-2.4008,-2.371,-2.4008,2.3711,-2.3711,2.4008,2.371,2.4008,2.4008,2.3711,2.4008,-2.371,2.371,-2.4008,-2.3711,-2.4008,0*%
%AMMACRO4*4,1,8,-0.9211,-0.8008,-0.9508,-0.771,-0.9508,0.7711,-0.9211,0.8008,0.921,0.8008,0.9508,0.7711,0.9508,-0.771,0.921,-0.8008,-0.9211,-0.8008,0*%
%AMMACRO5*4,1,8,-0.4711,-0.4508,-0.5008,-0.421,-0.5008,0.4211,-0.4711,0.4508,0.471,0.4508,0.5008,0.4211,0.5008,-0.421,0.471,-0.4508,-0.4711,-0.4508,0*%
%AMMACRO6*4,1,8,-0.4211,-0.5008,-0.4508,-0.471,-0.4508,0.4711,-0.4211,0.5008,0.421,0.5008,0.4508,0.4711,0.4508,-0.471,0.421,-0.5008,-0.4211,-0.5008,0*%
%AMMACRO7*4,1,8,-0.6688,-0.6985,-0.6985,-0.6687,-0.6985,0.6688,-0.6688,0.6985,0.6687,0.6985,0.6985,0.6688,0.6985,-0.6687,0.6687,-0.6985,-0.6688,-0.6985,0*%
%AMMACRO8*4,1,8,-0.3039,-0.3208,-0.3336,-0.291,-0.3336,0.2911,-0.3039,0.3208,0.3038,0.3208,0.3336,0.2911,0.3336,-0.291,0.3038,-0.3208,-0.3039,-0.3208,0*%
%AMMACRO9*4,1,8,-1.0211,-1.0508,-1.0508,-1.021,-1.0508,1.0211,-1.0211,1.0508,1.021,1.0508,1.0508,1.0211,1.0508,-1.021,1.021,-1.0508,-1.0211,-1.0508,0*%
%AMMACRO10*4,1,8,-0.4211,-0.4508,-0.4508,-0.421,-0.4508,0.4211,-0.4211,0.4508,0.421,0.4508,0.4508,0.4211,0.4508,-0.421,0.421,-0.4508,-0.4211,-0.4508,0*%
%AMMACRO11*4,1,8,-0.2911,-0.3336,-0.3208,-0.3038,-0.3208,0.3039,-0.2911,0.3336,0.291,0.3336,0.3208,0.3039,0.3208,-0.3038,0.291,-0.3336,-0.2911,-0.3336,0*%
%AMMACRO12*4,1,8,-0.9211,-0.9508,-0.9508,-0.921,-0.9508,0.9211,-0.9211,0.9508,0.921,0.9508,0.9508,0.9211,0.9508,-0.921,0.921,-0.9508,-0.9211,-0.9508,0*%
%AMMACRO13*4,1,8,-0.7095,-0.6171,-0.7393,-0.5873,-0.7393,0.5873,-0.7095,0.6171,0.7095,0.6171,0.7393,0.5873,0.7393,-0.5873,0.7095,-0.6171,-0.7095,-0.6171,0*%
%AMMACRO14*4,1,8,-0.2957,-0.6,-0.325,-0.5707,-0.325,0.5707,-0.2957,0.6,0.2957,0.6,0.325,0.5707,0.325,-0.5707,0.2957,-0.6,-0.2957,-0.6,0*%
%AMMACRO15*4,1,8,-0.1707,-0.6,-0.2,-0.5707,-0.2,0.5707,-0.1707,0.6,0.1707,0.6,0.2,0.5707,0.2,-0.5707,0.1707,-0.6,-0.1707,-0.6,0*%
%AMMACRO16*4,1,8,-0.646,-0.4008,-0.6758,-0.371,-0.6758,0.3711,-0.646,0.4008,0.646,0.4008,0.6758,0.3711,0.6758,-0.371,0.646,-0.4008,-0.646,-0.4008,0*%
%AMMACRO17*4,1,8,-0.2911,-0.4458,-0.3208,-0.4161,-0.3208,0.4161,-0.2911,0.4458,0.291,0.4458,0.3208,0.4161,0.3208,-0.4161,0.291,-0.4458,-0.2911,-0.4458,0*%
%AMMACRO18*4,1,8,-0.7707,-0.5,-0.8,-0.4707,-0.8,0.4707,-0.7707,0.5,0.7707,0.5,0.8,0.4707,0.8,-0.4707,0.7707,-0.5,-0.7707,-0.5,0*%
%AMMACRO19*4,1,8,-0.4707,-0.8,-0.5,-0.7707,-0.5,0.7707,-0.4707,0.8,0.4707,0.8,0.5,0.7707,0.5,-0.7707,0.4707,-0.8,-0.4707,-0.8,0*%
%AMMACRO20*4,1,8,-0.4711,-0.5008,-0.5008,-0.471,-0.5008,0.4711,-0.4711,0.5008,0.4711,0.5008,0.5008,0.4711,0.5008,-0.471,0.4711,-0.5008,-0.4711,-0.5008,0*%
%AMMACRO21*4,1,8,-0.4711,-0.5008,-0.5008,-0.471,-0.5008,0.4711,-0.4711,0.5008,0.471,0.5008,0.5008,0.4711,0.5008,-0.471,0.471,-0.5008,-0.4711,-0.5008,0*%
%AMMACRO22*4,1,8,-0.4711,-0.5008,-0.5008,-0.4711,-0.5008,0.4711,-0.4711,0.5008,0.4711,0.5008,0.5008,0.4711,0.5008,-0.4711,0.4711,-0.5008,-0.4711,-0.5008,0*%
%AMMACRO23*4,1,8,-0.4711,-0.5008,-0.5008,-0.4711,-0.5008,0.4711,-0.4711,0.5008,0.471,0.5008,0.5008,0.4711,0.5008,-0.4711,0.471,-0.5008,-0.4711,-0.5008,0*%
%AMMACRO24*4,1,8,-0.6211,-1.8008,-0.6508,-1.771,-0.6508,1.7711,-0.6211,1.8008,0.621,1.8008,0.6508,1.7711,0.6508,-1.771,0.621,-1.8008,-0.6211,-1.8008,0*%
%AMMACRO25*4,1,8,-0.396,-0.1758,-0.4258,-0.146,-0.4258,0.1461,-0.396,0.1758,0.396,0.1758,0.4258,0.1461,0.4258,-0.146,0.396,-0.1758,-0.396,-0.1758,0*%
%AMMACRO26*4,1,8,-0.1461,-0.4258,-0.1758,-0.396,-0.1758,0.396,-0.1461,0.4258,0.146,0.4258,0.1758,0.396,0.1758,-0.396,0.146,-0.4258,-0.1461,-0.4258,0*%
%AMMACRO27*4,1,8,-0.8711,-0.9008,-0.9008,-0.871,-0.9008,0.8711,-0.8711,0.9008,0.871,0.9008,0.9008,0.8711,0.9008,-0.871,0.871,-0.9008,-0.8711,-0.9008,0*%
%ADD10C,2.1016*%
%ADD11MACRO1*%
%ADD12MACRO2*%
%ADD13O,0.4656074X0.9485884*%
%ADD14O,0.9485884X0.4656074*%
%ADD15MACRO3*%
%ADD16C,2.6016*%
%ADD17MACRO4*%
%ADD18MACRO5*%
%ADD19MACRO6*%
%ADD20MACRO7*%
%ADD21C,1.3970*%
%ADD22MACRO8*%
%ADD23MACRO9*%
%ADD24MACRO10*%
%ADD25MACRO11*%
%ADD26MACRO12*%
%ADD27C,1.9016*%
%ADD28MACRO13*%
%ADD29MACRO14*%
%ADD30MACRO15*%
%ADD31O,1.200023X2.1000212*%
%ADD32O,1.3000228X1.9000215999999999*%
%ADD33MACRO16*%
%ADD34MACRO17*%
%ADD35MACRO18*%
%ADD36MACRO19*%
%ADD37MACRO20*%
%ADD38MACRO21*%
%ADD39MACRO22*%
%ADD40MACRO23*%
%ADD41MACRO24*%
%ADD42MACRO25*%
%ADD43MACRO26*%
%ADD44MACRO27*%
%ADD45C,0.0117*%

%LPD*%
D10*
X5080000Y3441700D02*
G01*
X5080000Y774700D01*
X139700Y3810000D02*
G01*
X139700Y762000D01*
D11*
G01*
X1040524Y1447800D03*
G01*
X889875Y1447800D03*
G01*
X1370724Y1447800D03*
G01*
X1220075Y1447800D03*
D12*
G01*
X3691994Y2247900D03*
G01*
X3801005Y2247900D03*
G01*
X4238094Y2247900D03*
G01*
X4347105Y2247900D03*
D13*
G01*
X3780104Y2506853D03*
G01*
X3845102Y2506853D03*
G01*
X3910101Y2506853D03*
G01*
X3975100Y2506853D03*
G01*
X4040098Y2506853D03*
G01*
X4105097Y2506853D03*
G01*
X4170095Y2506853D03*
D14*
G01*
X4274947Y2611704D03*
G01*
X4274947Y2676702D03*
G01*
X4274947Y2741701D03*
G01*
X4274947Y2806700D03*
G01*
X4274947Y2871698D03*
G01*
X4274947Y2936697D03*
G01*
X4274947Y3001695D03*
D13*
G01*
X4170095Y3106546D03*
G01*
X4105097Y3106546D03*
G01*
X4040098Y3106546D03*
G01*
X3975100Y3106546D03*
G01*
X3910101Y3106546D03*
G01*
X3845102Y3106546D03*
G01*
X3780104Y3106546D03*
D14*
G01*
X3675252Y3001695D03*
G01*
X3675252Y2936697D03*
G01*
X3675252Y2871698D03*
G01*
X3675252Y2806700D03*
G01*
X3675252Y2741701D03*
G01*
X3675252Y2676702D03*
G01*
X3675252Y2611704D03*
D15*
G01*
X3975100Y2806700D03*
D16*
G01*
X5638800Y3695700D03*
D17*
G01*
X4277199Y2049199D03*
G01*
X3749200Y2049199D03*
G01*
X3749200Y1659200D03*
G01*
X4277199Y1659200D03*
D18*
G01*
X4483100Y3054200D03*
G01*
X4483100Y3194199D03*
G01*
X4660900Y3054200D03*
G01*
X4660900Y3194199D03*
G01*
X4838700Y3054200D03*
G01*
X4838700Y3194199D03*
D19*
G01*
X4057799Y3810000D03*
G01*
X3917800Y3810000D03*
D20*
G01*
X4635500Y4165600D03*
D21*
G01*
X4381500Y4165600D03*
G01*
X4127500Y4165600D03*
G01*
X3873500Y4165600D03*
D22*
G01*
X3665117Y3835400D03*
G01*
X3751682Y3835400D03*
D23*
G01*
X3560099Y787400D03*
G01*
X3120100Y787400D03*
G01*
X3864899Y1130300D03*
G01*
X3424900Y1130300D03*
G01*
X4283999Y800100D03*
G01*
X3844000Y800100D03*
D24*
G01*
X4254847Y364543D03*
G01*
X4254146Y524443D03*
G01*
X3886547Y364543D03*
G01*
X3885846Y524443D03*
G01*
X3530947Y364543D03*
G01*
X3530246Y524443D03*
G01*
X3162647Y364543D03*
G01*
X3161946Y524443D03*
D25*
G01*
X4076700Y500482D03*
G01*
X4076700Y413917D03*
G01*
X3708400Y500482D03*
G01*
X3708400Y413917D03*
G01*
X3352800Y500482D03*
G01*
X3352800Y413917D03*
G01*
X4419600Y500482D03*
G01*
X4419600Y413917D03*
D26*
G01*
X863600Y1079500D03*
D27*
G01*
X1117600Y1079500D03*
D28*
G01*
X2743200Y496895D03*
G01*
X2743200Y696904D03*
G01*
X1473200Y496895D03*
G01*
X1473200Y696904D03*
D29*
G01*
X1788198Y732803D03*
G01*
X1868208Y732803D03*
D30*
G01*
X1933206Y732803D03*
G01*
X1983219Y732803D03*
G01*
X2033206Y732803D03*
G01*
X2083193Y732803D03*
G01*
X2133206Y732803D03*
G01*
X2183193Y732803D03*
G01*
X2233206Y732803D03*
G01*
X2283218Y732803D03*
D29*
G01*
X2348217Y732803D03*
G01*
X2428201Y732803D03*
D31*
G01*
X1675714Y677798D03*
G01*
X2540711Y677798D03*
D32*
G01*
X1675714Y257784D03*
G01*
X2540711Y257784D03*
D12*
G01*
X593194Y1447800D03*
G01*
X702205Y1447800D03*
D19*
G01*
X717699Y2006600D03*
G01*
X577700Y2006600D03*
D33*
G01*
X747699Y1632203D03*
G01*
X747699Y1822194D03*
G01*
X547700Y1727198D03*
D34*
G01*
X889000Y2879194D03*
G01*
X889000Y2988205D03*
G01*
X889000Y2518305D03*
G01*
X889000Y2409294D03*
D18*
G01*
X342900Y3701900D03*
G01*
X342900Y3841899D03*
G01*
X698500Y3701900D03*
G01*
X698500Y3841899D03*
G01*
X520700Y3701900D03*
G01*
X520700Y3841899D03*
G01*
X876300Y3701900D03*
G01*
X876300Y3841899D03*
G01*
X2527300Y1212999D03*
G01*
X2527300Y1073000D03*
D19*
G01*
X844699Y3340100D03*
G01*
X704700Y3340100D03*
G01*
X3155800Y2082800D03*
G01*
X3295799Y2082800D03*
D18*
G01*
X1727200Y1212999D03*
G01*
X1727200Y1073000D03*
G01*
X2349500Y1073000D03*
G01*
X2349500Y1212999D03*
D19*
G01*
X1923900Y1435100D03*
G01*
X2063899Y1435100D03*
D11*
G01*
X3301124Y2247900D03*
G01*
X3150475Y2247900D03*
D25*
G01*
X2260600Y1503782D03*
G01*
X2260600Y1417217D03*
D11*
G01*
X699375Y3517900D03*
G01*
X850024Y3517900D03*
D25*
G01*
X2425700Y1503782D03*
G01*
X2425700Y1417217D03*
D35*
G01*
X1080799Y3810495D03*
G01*
X1080800Y3683495D03*
G01*
X1080800Y3556495D03*
G01*
X1080800Y3429495D03*
G01*
X1080800Y3302495D03*
G01*
X1080800Y3175495D03*
G01*
X1080800Y3048495D03*
G01*
X1080800Y2921495D03*
G01*
X1080800Y2794495D03*
G01*
X1080800Y2667495D03*
G01*
X1080800Y2540495D03*
G01*
X1080800Y2413495D03*
G01*
X1080800Y2286495D03*
G01*
X1080800Y2159495D03*
D36*
G01*
X1257300Y2031494D03*
G01*
X1384300Y2031494D03*
G01*
X1511300Y2031494D03*
G01*
X1638300Y2031494D03*
G01*
X1765300Y2031494D03*
G01*
X1892300Y2031494D03*
G01*
X2019300Y2031494D03*
G01*
X2146300Y2031494D03*
G01*
X2273300Y2031494D03*
G01*
X2400300Y2031494D03*
G01*
X2527300Y2031494D03*
G01*
X2654300Y2034499D03*
D35*
G01*
X2830799Y2159495D03*
G01*
X2830799Y2286495D03*
G01*
X2830799Y2413495D03*
G01*
X2830799Y2540495D03*
G01*
X2830799Y2667495D03*
G01*
X2830799Y2794495D03*
G01*
X2830799Y2921495D03*
G01*
X2830799Y3048495D03*
G01*
X2830799Y3175495D03*
G01*
X2830799Y3302495D03*
G01*
X2830799Y3429495D03*
G01*
X2830799Y3556495D03*
G01*
X2830799Y3683495D03*
G01*
X2830799Y3810495D03*
D37*
G01*
X1945789Y2898485D03*
D38*
G01*
X1805790Y2898475D03*
G01*
X1665792Y2898485D03*
G01*
X1665792Y3178484D03*
G01*
X1805790Y3178484D03*
D37*
G01*
X1945789Y3178484D03*
D39*
G01*
X1945789Y3038485D03*
D40*
G01*
X1665791Y3038485D03*
G01*
X1805790Y3038485D03*
D41*
G01*
X647700Y3000096D03*
G01*
X647700Y2410098D03*
D42*
G01*
X2176979Y1068160D03*
G01*
X2176979Y1118147D03*
G01*
X2176979Y1168159D03*
G01*
X2177004Y1218147D03*
D43*
G01*
X2106979Y1287992D03*
G01*
X2056992Y1287992D03*
G01*
X2006979Y1287992D03*
G01*
X1956992Y1287992D03*
D42*
G01*
X1886995Y1217994D03*
G01*
X1886995Y1167997D03*
G01*
X1886995Y1118000D03*
G01*
X1886995Y1068078D03*
D43*
G01*
X1956992Y998007D03*
G01*
X2006979Y998007D03*
G01*
X2056992Y998007D03*
G01*
X2106979Y998007D03*
D44*
G01*
X2031987Y1143025D03*
M02*
